<svg width="18" height="20" viewBox="0 0 18 20" fill="none" xmlns="http://www.w3.org/2000/svg">
<path fill-rule="evenodd" clip-rule="evenodd" d="M15.412 4.5L14.611 18.117C14.5812 18.6264 14.3577 19.1051 13.9865 19.4551C13.6153 19.8052 13.1243 20.0001 12.614 20H5.386C4.87575 20.0001 4.38475 19.8052 4.0135 19.4551C3.64226 19.1051 3.41885 18.6264 3.389 18.117L2.59 4.5H0.5V3.5C0.5 3.36739 0.552679 3.24021 0.646447 3.14645C0.740215 3.05268 0.867392 3 1 3H17C17.1326 3 17.2598 3.05268 17.3536 3.14645C17.4473 3.24021 17.5 3.36739 17.5 3.5V4.5H15.412ZM7 0.5H11C11.1326 0.5 11.2598 0.552679 11.3536 0.646447C11.4473 0.740215 11.5 0.867392 11.5 1V2H6.5V1C6.5 0.867392 6.55268 0.740215 6.64645 0.646447C6.74021 0.552679 6.86739 0.5 7 0.5ZM6 7L6.5 16H8L7.6 7H6ZM10.5 7L10 16H11.5L12 7H10.5Z" fill="#6F6C8F"/>
</svg>
